<svg width="51" height="50" viewBox="0 0 51 50" fill="none" xmlns="http://www.w3.org/2000/svg">
<path fill-rule="evenodd" clip-rule="evenodd" d="M30.7979 5.41238C30.3186 4.41412 29.5669 3.5716 28.6296 2.98191C27.6923 2.39222 26.6074 2.07935 25.5 2.07935C24.3926 2.07935 23.3077 2.39222 22.3704 2.98191C21.4331 3.5716 20.6814 4.41412 20.2021 5.41238L3.29375 38.6728C1.27083 42.6436 3.82708 47.9165 8.58958 47.9165H42.4104C47.1729 47.9165 49.725 42.6457 47.7062 38.6728L30.7979 5.41238ZM25.5 16.6665C26.0525 16.6665 26.5824 16.886 26.9731 17.2767C27.3638 17.6674 27.5833 18.1973 27.5833 18.7499V29.1665C27.5833 29.7191 27.3638 30.249 26.9731 30.6397C26.5824 31.0304 26.0525 31.2499 25.5 31.2499C24.9475 31.2499 24.4176 31.0304 24.0269 30.6397C23.6362 30.249 23.4167 29.7191 23.4167 29.1665V18.7499C23.4167 18.1973 23.6362 17.6674 24.0269 17.2767C24.4176 16.886 24.9475 16.6665 25.5 16.6665ZM25.5 34.3749C26.0525 34.3749 26.5824 34.5944 26.9731 34.9851C27.3638 35.3758 27.5833 35.9057 27.5833 36.4582V37.4999C27.5833 38.0524 27.3638 38.5823 26.9731 38.973C26.5824 39.3637 26.0525 39.5832 25.5 39.5832C24.9475 39.5832 24.4176 39.3637 24.0269 38.973C23.6362 38.5823 23.4167 38.0524 23.4167 37.4999V36.4582C23.4167 35.9057 23.6362 35.3758 24.0269 34.9851C24.4176 34.5944 24.9475 34.3749 25.5 34.3749Z" fill="#FDD100"/>
</svg>
