<svg width="16" height="15" viewBox="0 0 16 15" fill="none" xmlns="http://www.w3.org/2000/svg">
<path d="M7.375 9.26562V11.25C7.375 11.4271 7.435 11.5756 7.555 11.6956C7.675 11.8156 7.82333 11.8754 8 11.875C8.17667 11.8746 8.32521 11.8146 8.44563 11.695C8.56604 11.5754 8.62583 11.4271 8.625 11.25V9.26562L9.1875 9.82812C9.25 9.89062 9.32042 9.9375 9.39875 9.96875C9.47708 10 9.55521 10.0131 9.63312 10.0081C9.71104 10.0031 9.78646 9.98479 9.85938 9.95312C9.93229 9.92146 10 9.87458 10.0625 9.8125C10.1771 9.6875 10.2371 9.54167 10.2425 9.375C10.2479 9.20833 10.1879 9.0625 10.0625 8.9375L8.4375 7.3125C8.375 7.25 8.30729 7.20583 8.23438 7.18C8.16146 7.15417 8.08333 7.14104 8 7.14062C7.91667 7.14021 7.83854 7.15333 7.76562 7.18C7.69271 7.20667 7.625 7.25083 7.5625 7.3125L5.9375 8.9375C5.8125 9.0625 5.75271 9.20833 5.75813 9.375C5.76354 9.54167 5.82854 9.6875 5.95313 9.8125C6.07813 9.92708 6.22396 9.98708 6.39062 9.9925C6.55729 9.99792 6.70312 9.93792 6.82812 9.8125L7.375 9.26562ZM4.25 13.75C3.90625 13.75 3.61208 13.6277 3.3675 13.3831C3.12292 13.1385 3.00042 12.8442 3 12.5V2.5C3 2.15625 3.1225 1.86208 3.3675 1.6175C3.6125 1.37292 3.90667 1.25042 4.25 1.25H8.73438C8.90104 1.25 9.06 1.28125 9.21125 1.34375C9.3625 1.40625 9.49521 1.49479 9.60938 1.60938L12.6406 4.64062C12.7552 4.75521 12.8438 4.88812 12.9062 5.03937C12.9688 5.19062 13 5.34937 13 5.51562V12.5C13 12.8438 12.8777 13.1381 12.6331 13.3831C12.3885 13.6281 12.0942 13.7504 11.75 13.75H4.25ZM8.625 5V2.5H4.25V12.5H11.75V5.625H9.25C9.07292 5.625 8.92458 5.565 8.805 5.445C8.68542 5.325 8.62542 5.17667 8.625 5Z" fill="#FDD100"/>
</svg>
